<?xml version="1.0" standalone="no"?>
<!DOCTYPE svg PUBLIC "-//W3C//DTD SVG 20010904//EN"
 "http://www.w3.org/TR/2001/REC-SVG-20010904/DTD/svg10.dtd">
<svg version="1.0" xmlns="http://www.w3.org/2000/svg"
 width="1280.000000pt" height="1280.000000pt" viewBox="0 0 1280.000000 1280.000000"
 preserveAspectRatio="xMidYMid meet">
<metadata>
Created by potrace 1.15, written by Peter Selinger 2001-2017
</metadata>
<g transform="translate(0.000000,1280.000000) scale(0.100000,-0.100000)"
fill="#bed754" stroke="none">
<path d="M388 12608 l-3 -193 -187 -3 -188 -2 0 -60 0 -60 187 -2 188 -3 3
-287 2 -288 -190 0 -190 0 0 -65 0 -65 190 0 190 0 -2 -287 -3 -288 -187 -3
-188 -2 0 -60 0 -60 188 -2 187 -3 3 -287 2 -288 -190 0 -190 0 0 -65 0 -65
190 0 190 0 -2 -287 -3 -288 -188 -3 -187 -2 0 -60 0 -60 187 -2 188 -3 3
-287 2 -288 -190 0 -190 0 0 -65 0 -65 190 0 190 0 -2 -287 -3 -288 -188 -3
-187 -2 0 -60 0 -60 188 -2 187 -3 3 -287 2 -288 -187 -2 -188 -3 -3 -62 -3
-63 191 0 190 0 0 -290 0 -290 -190 0 -190 0 0 -65 0 -65 190 0 190 0 -2 -287
-3 -288 -187 -3 -188 -2 0 -60 0 -60 188 -2 187 -3 3 -287 2 -288 -190 0 -190
0 0 -65 0 -65 190 0 190 0 -2 -287 -3 -288 -188 -3 -187 -2 0 -60 0 -60 188
-2 187 -3 3 -287 2 -288 -190 0 -190 0 0 -65 0 -65 190 0 190 0 -2 -287 -3
-288 -187 -3 -188 -2 0 -60 0 -60 188 -2 187 -3 3 -287 2 -288 -190 0 -190 0
0 -65 0 -65 190 0 190 0 -2 -287 -3 -288 -188 -3 -187 -2 0 -60 0 -60 188 -2
187 -3 3 -252 2 -253 -187 -2 -188 -3 -3 -63 -3 -62 191 0 190 0 -2 -287 -3
-288 -188 -3 -188 -2 3 -63 3 -62 188 -3 187 -2 0 -180 0 -180 60 0 60 0 2
180 c2 99 6 180 11 180 4 0 133 0 287 0 l280 0 0 -180 0 -180 65 0 65 0 0 180
0 180 290 0 290 0 0 -180 0 -180 60 0 60 0 2 180 c2 99 6 180 11 180 4 0 133
0 287 0 l280 0 0 -180 0 -180 65 0 65 0 0 180 0 180 290 0 290 0 0 -180 0
-180 60 0 60 0 2 183 c2 100 6 181 11 180 4 -2 133 -3 287 -3 l280 0 0 -180 0
-180 65 0 65 0 0 180 0 180 290 0 290 0 0 -180 0 -180 60 0 60 0 2 183 c2 100
6 181 11 180 4 -2 133 -3 287 -3 l280 0 0 -180 0 -180 65 0 65 0 0 180 0 180
290 0 290 0 0 -180 0 -180 65 0 65 0 0 180 0 180 280 0 c154 0 283 1 288 3 4
1 8 -80 10 -180 l2 -183 60 0 60 0 0 180 0 180 290 0 290 0 0 -180 0 -180 65
0 65 0 0 180 0 180 280 0 c154 0 283 1 288 3 4 1 8 -80 10 -180 l2 -183 60 0
60 0 0 180 0 180 290 0 290 0 0 -180 0 -180 65 0 65 0 0 180 0 180 280 0 c154
0 283 1 288 3 4 1 8 -80 10 -180 l2 -183 60 0 60 0 0 180 0 180 290 0 290 0 0
-180 0 -180 65 0 65 0 0 180 0 180 280 0 c154 0 283 0 288 0 4 0 8 -81 10
-180 l2 -180 60 0 60 0 0 180 0 179 255 3 255 3 0 -182 0 -183 65 0 65 0 0
180 0 180 280 0 c154 0 283 0 288 0 4 0 8 -81 10 -180 l2 -180 66 0 65 0 -3
180 -3 180 183 0 182 0 0 65 0 65 -180 0 -180 0 0 280 c0 154 0 283 0 288 0 4
81 8 180 10 l180 2 0 65 0 65 -180 0 -180 0 0 245 c0 135 0 248 0 253 0 4 81
8 180 10 l180 2 0 60 0 60 -180 0 -180 0 0 290 0 290 180 0 180 0 0 65 0 65
-180 0 -180 0 0 280 c0 154 0 283 0 288 0 4 81 8 180 10 l180 2 0 60 0 60
-180 0 -180 0 0 290 0 290 180 0 180 0 0 65 0 65 -180 0 -180 0 0 280 c0 154
-1 283 -2 288 -2 4 79 8 180 10 l182 2 0 60 0 60 -180 0 -180 0 0 290 0 290
180 0 180 0 0 65 0 65 -180 0 -180 0 0 280 c0 154 -1 283 -2 288 -2 4 79 8
180 10 l182 2 0 60 0 60 -182 2 c-101 2 -182 6 -180 11 1 4 2 133 2 287 l0
280 180 0 180 0 0 65 0 65 -182 2 c-101 2 -182 6 -180 11 1 4 2 133 2 287 l0
280 180 0 180 0 0 65 0 65 -182 0 -183 0 3 290 3 290 179 0 180 0 0 60 0 60
-182 2 c-101 2 -182 6 -180 11 1 4 2 133 2 287 l0 280 180 0 180 0 0 65 0 65
-180 0 -180 0 0 290 0 290 180 0 180 0 0 60 0 60 -182 2 c-101 2 -182 6 -180
11 1 4 2 133 2 287 l0 280 180 0 180 0 0 65 0 65 -182 0 -183 0 3 290 3 290
179 0 180 0 0 60 0 60 -180 2 c-99 2 -180 6 -180 11 0 4 0 133 0 287 l0 280
180 0 180 0 0 65 0 65 -180 0 -180 0 0 290 0 290 180 0 180 0 0 60 0 60 -180
0 -180 0 0 195 0 195 -65 0 -65 0 0 -195 0 -195 -290 0 -290 0 0 195 0 195
-65 0 -65 0 0 -195 0 -195 -252 2 -253 3 -3 193 -2 192 -60 0 -60 0 -2 -192
-3 -193 -287 -3 -288 -2 0 195 0 195 -65 0 -65 0 0 -195 0 -195 -287 2 -288 3
-3 193 -2 192 -60 0 -60 0 -2 -192 -3 -193 -287 -3 -288 -2 0 195 0 195 -65 0
-65 0 0 -195 0 -195 -287 2 -288 3 -3 193 -2 192 -60 0 -60 0 -2 -192 -3 -193
-287 -3 -288 -2 0 195 0 195 -65 0 -65 0 0 -195 0 -195 -288 2 -287 3 -3 193
-2 192 -60 0 -60 0 -2 -192 -3 -193 -287 -3 -288 -2 0 195 0 195 -65 0 -65 0
0 -195 0 -195 -290 0 -290 0 0 195 0 195 -65 0 -65 0 0 -195 0 -195 -287 2
-288 3 -3 193 -2 192 -60 0 -60 0 -2 -192 -3 -193 -287 -3 -288 -2 0 195 0
195 -65 0 -65 0 0 -195 0 -195 -287 2 -288 3 -3 193 -2 192 -60 0 -60 0 -2
-192 -3 -193 -287 -3 -288 -2 0 195 0 195 -65 0 -65 0 0 -195 0 -195 -287 2
-288 3 -3 193 -2 192 -60 0 -60 0 -2 -192 -3 -193 -287 -3 -288 -2 0 195 0
195 -65 0 -65 0 0 -195 0 -195 -287 2 -288 3 -3 193 -2 192 -60 0 -60 0 -2
-192z m702 -608 l0 -290 -290 0 -290 0 0 290 0 290 290 0 290 0 0 -290z m708
-2 l2 -288 -290 0 -290 0 0 290 0 290 288 -2 287 -3 3 -287z m702 2 l0 -290
-290 0 -290 0 0 283 c0 156 3 287 7 290 3 4 134 7 290 7 l283 0 0 -290z m708
-2 l2 -288 -290 0 -290 0 0 290 0 290 288 -2 287 -3 3 -287z m702 2 l0 -290
-290 0 -290 0 0 290 0 290 290 0 290 0 0 -290z m710 0 l0 -290 -290 0 -290 0
0 290 0 290 290 0 290 0 0 -290z m700 0 l0 -290 -290 0 -290 0 0 283 c0 156 3
287 7 290 3 4 134 7 290 7 l283 0 0 -290z m710 0 l0 -290 -290 0 -290 0 0 290
0 290 290 0 290 0 0 -290z m708 -2 l2 -288 -290 0 -290 0 0 290 0 290 288 -2
287 -3 3 -287z m702 2 l0 -290 -290 0 -290 0 0 290 0 290 290 0 290 0 0 -290z
m710 0 l0 -290 -290 0 -290 0 0 290 0 290 290 0 290 0 0 -290z m700 0 l0 -290
-290 0 -290 0 0 283 c0 156 3 287 7 290 3 4 134 7 290 7 l283 0 0 -290z m708
-2 l2 -288 -290 0 -290 0 0 290 0 290 288 -2 287 -3 3 -287z m702 2 l0 -290
-290 0 -290 0 0 283 c0 156 3 287 7 290 3 4 134 7 290 7 l283 0 0 -290z m710
0 l0 -290 -290 0 -290 0 0 290 0 290 290 0 290 0 0 -290z m630 0 l0 -290 -255
0 -255 0 0 283 c0 156 3 287 7 290 3 4 118 7 255 7 l248 0 0 -290z m710 0 l0
-290 -290 0 -290 0 0 290 0 290 290 0 290 0 0 -290z m-11220 -710 l0 -290
-290 0 -290 0 0 290 0 290 290 0 290 0 0 -290z m708 3 l-3 -288 -287 -3 -288
-2 0 290 0 290 290 0 290 0 -2 -287z m702 -3 l0 -290 -287 2 -288 3 -3 288 -2
287 290 0 290 0 0 -290z m708 3 l-3 -288 -287 -3 -288 -2 0 290 0 290 290 0
290 0 -2 -287z m702 -3 l0 -290 -287 2 -288 3 -3 288 -2 287 290 0 290 0 0
-290z m708 3 l-3 -288 -287 -3 -288 -2 0 290 0 290 290 0 290 0 -2 -287z m702
-3 l0 -290 -287 2 -288 3 -3 288 -2 287 290 0 290 0 0 -290z m710 0 l0 -290
-290 0 -290 0 0 290 0 290 290 0 290 0 0 -290z m708 3 l-3 -288 -287 -3 -288
-2 0 290 0 290 290 0 290 0 -2 -287z m702 -3 l0 -290 -287 2 -288 3 -3 288 -2
287 290 0 290 0 0 -290z m708 3 l-3 -288 -287 -3 -288 -2 0 290 0 290 290 0
290 0 -2 -287z m702 -3 l0 -290 -287 2 -288 3 -3 288 -2 287 290 0 290 0 0
-290z m708 3 l-3 -288 -287 -3 -288 -2 0 290 0 290 290 0 290 0 -2 -287z m702
-3 l0 -290 -287 2 -288 3 -3 288 -2 287 290 0 290 0 0 -290z m710 0 l0 -290
-290 0 -290 0 0 290 0 290 290 0 290 0 0 -290z m630 0 l0 -290 -252 2 -253 3
-3 288 -2 287 255 0 255 0 0 -290z m710 0 l0 -290 -290 0 -290 0 0 290 0 290
290 0 290 0 0 -290z m-11220 -700 l0 -290 -290 0 -290 0 0 283 c0 156 3 287 7
290 3 4 134 7 290 7 l283 0 0 -290z m708 -2 l2 -288 -290 0 -290 0 0 290 0
290 288 -2 287 -3 3 -287z m702 2 l0 -290 -290 0 -290 0 0 283 c0 156 3 287 7
290 3 4 134 7 290 7 l283 0 0 -290z m708 -2 l2 -288 -290 0 -290 0 0 290 0
290 288 -2 287 -3 3 -287z m702 2 l0 -290 -290 0 -290 0 0 283 c0 156 3 287 7
290 3 4 134 7 290 7 l283 0 0 -290z m708 -2 l2 -288 -290 0 -290 0 0 290 0
290 288 -2 287 -3 3 -287z m702 2 l0 -290 -290 0 -290 0 0 283 c0 156 3 287 7
290 3 4 134 7 290 7 l283 0 0 -290z m710 0 l0 -290 -290 0 -290 0 0 290 0 290
290 0 290 0 0 -290z m708 -2 l2 -288 -290 0 -290 0 0 290 0 290 288 -2 287 -3
3 -287z m702 2 l0 -290 -290 0 -290 0 0 283 c0 156 3 287 7 290 3 4 134 7 290
7 l283 0 0 -290z m708 -2 l2 -288 -290 0 -290 0 0 290 0 290 288 -2 287 -3 3
-287z m702 2 l0 -290 -290 0 -290 0 0 283 c0 156 3 287 7 290 3 4 134 7 290 7
l283 0 0 -290z m708 -2 l2 -288 -290 0 -290 0 0 290 0 290 288 -2 287 -3 3
-287z m702 2 l0 -290 -290 0 -290 0 0 283 c0 156 3 287 7 290 3 4 134 7 290 7
l283 0 0 -290z m708 -2 l2 -288 -290 0 -290 0 0 290 0 290 288 -2 287 -3 3
-287z m632 2 l0 -290 -255 0 -255 0 0 283 c0 156 3 287 7 290 3 4 118 7 255 7
l248 0 0 -290z m708 -2 l2 -288 -290 0 -290 0 0 290 0 290 288 -2 287 -3 3
-287z m-11218 -708 l0 -290 -287 2 -288 3 -3 288 -2 287 290 0 290 0 0 -290z
m708 3 l-3 -288 -287 -3 -288 -2 0 290 0 290 290 0 290 0 -2 -287z m702 -3 l0
-290 -287 2 -288 3 -3 288 -2 287 290 0 290 0 0 -290z m708 3 l-3 -288 -287
-3 -288 -2 0 290 0 290 290 0 290 0 -2 -287z m702 -3 l0 -290 -287 2 -288 3
-3 288 -2 287 290 0 290 0 0 -290z m708 3 l-3 -288 -287 -3 -288 -2 0 290 0
290 290 0 290 0 -2 -287z m702 -3 l0 -290 -287 2 -288 3 -3 288 -2 287 290 0
290 0 0 -290z m710 0 l0 -290 -290 0 -290 0 0 290 0 290 290 0 290 0 0 -290z
m708 3 l-3 -288 -287 -3 -288 -2 0 290 0 290 290 0 290 0 -2 -287z m702 -3 l0
-290 -287 2 -288 3 -3 288 -2 287 290 0 290 0 0 -290z m708 3 l-3 -288 -287
-3 -288 -2 0 290 0 290 290 0 290 0 -2 -287z m702 -3 l0 -290 -287 2 -288 3
-3 288 -2 287 290 0 290 0 0 -290z m708 3 l-3 -288 -287 -3 -288 -2 0 290 0
290 290 0 290 0 -2 -287z m702 -3 l0 -290 -287 2 -288 3 -3 288 -2 287 290 0
290 0 0 -290z m708 3 l-3 -288 -287 -3 -288 -2 0 290 0 290 290 0 290 0 -2
-287z m632 -3 l0 -290 -252 2 -253 3 -3 288 -2 287 255 0 255 0 0 -290z m710
0 l0 -290 -290 0 -290 0 0 290 0 290 290 0 290 0 0 -290z m-11220 -700 l0
-290 -290 0 -290 0 0 283 c0 156 3 287 7 290 3 4 134 7 290 7 l283 0 0 -290z
m708 -2 l2 -288 -290 0 -290 0 0 290 0 290 288 -2 287 -3 3 -287z m702 2 l0
-290 -290 0 -290 0 0 283 c0 156 3 287 7 290 3 4 134 7 290 7 l283 0 0 -290z
m708 -2 l2 -288 -290 0 -290 0 0 290 0 290 288 -2 287 -3 3 -287z m702 2 l0
-290 -290 0 -290 0 0 283 c0 156 3 287 7 290 3 4 134 7 290 7 l283 0 0 -290z
m708 -2 l2 -288 -290 0 -290 0 0 290 0 290 288 -2 287 -3 3 -287z m702 2 l0
-290 -290 0 -290 0 0 283 c0 156 3 287 7 290 3 4 134 7 290 7 l283 0 0 -290z
m710 0 l0 -290 -290 0 -290 0 0 290 0 290 290 0 290 0 0 -290z m708 -2 l2
-288 -290 0 -290 0 0 290 0 290 288 -2 287 -3 3 -287z m702 2 l0 -290 -290 0
-290 0 0 283 c0 156 3 287 7 290 3 4 134 7 290 7 l283 0 0 -290z m710 0 l0
-290 -290 0 -290 0 0 290 0 290 290 0 290 0 0 -290z m700 0 l0 -290 -290 0
-290 0 0 283 c0 156 3 287 7 290 3 4 134 7 290 7 l283 0 0 -290z m708 -2 l2
-288 -290 0 -290 0 0 290 0 290 288 -2 287 -3 3 -287z m702 2 l0 -290 -290 0
-290 0 0 283 c0 156 3 287 7 290 3 4 134 7 290 7 l283 0 0 -290z m710 0 l0
-290 -290 0 -290 0 0 290 0 290 290 0 290 0 0 -290z m630 0 l0 -290 -255 0
-255 0 0 283 c0 156 3 287 7 290 3 4 118 7 255 7 l248 0 0 -290z m710 0 l0
-290 -290 0 -290 0 0 290 0 290 290 0 290 0 0 -290z m-11220 -710 l0 -290
-290 0 -290 0 0 290 0 290 290 0 290 0 0 -290z m708 3 l-3 -288 -287 -3 -288
-2 0 290 0 290 290 0 290 0 -2 -287z m702 -3 l0 -290 -287 2 -288 3 -3 288 -2
287 290 0 290 0 0 -290z m708 3 l-3 -288 -287 -3 -288 -2 0 290 0 290 290 0
290 0 -2 -287z m702 -3 l0 -290 -287 2 -288 3 -3 288 -2 287 290 0 290 0 0
-290z m710 0 l0 -290 -290 0 -290 0 0 290 0 290 290 0 290 0 0 -290z m700 0
l0 -290 -287 2 -288 3 -3 288 -2 287 290 0 290 0 0 -290z m710 0 l0 -290 -290
0 -290 0 0 290 0 290 290 0 290 0 0 -290z m708 3 l-3 -288 -287 -3 -288 -2 0
290 0 290 290 0 290 0 -2 -287z m702 -3 l0 -290 -287 2 -288 3 -3 288 -2 287
290 0 290 0 0 -290z m710 0 l0 -290 -290 0 -290 0 0 290 0 290 290 0 290 0 0
-290z m700 0 l0 -290 -287 2 -288 3 -3 288 -2 287 290 0 290 0 0 -290z m708 3
l-3 -288 -287 -3 -288 -2 0 290 0 290 290 0 290 0 -2 -287z m702 -3 l0 -290
-287 2 -288 3 -3 288 -2 287 290 0 290 0 0 -290z m710 0 l0 -290 -290 0 -290
0 0 290 0 290 290 0 290 0 0 -290z m630 0 l0 -290 -252 2 -253 3 -3 288 -2
287 255 0 255 0 0 -290z m710 0 l0 -290 -290 0 -290 0 0 290 0 290 290 0 290
0 0 -290z m-11220 -700 l0 -290 -290 0 -290 0 0 283 c0 156 3 287 7 290 3 4
134 7 290 7 l283 0 0 -290z m708 -2 l2 -288 -290 0 -290 0 0 290 0 290 288 -2
287 -3 3 -287z m702 2 l0 -290 -290 0 -290 0 0 283 c0 156 3 287 7 290 3 4
134 7 290 7 l283 0 0 -290z m708 -2 l2 -288 -290 0 -290 0 0 290 0 290 288 -2
287 -3 3 -287z m702 2 l0 -290 -290 0 -290 0 0 283 c0 156 3 287 7 290 3 4
134 7 290 7 l283 0 0 -290z m708 -2 l2 -288 -290 0 -290 0 0 290 0 290 288 -2
287 -3 3 -287z m702 2 l0 -290 -290 0 -290 0 0 283 c0 156 3 287 7 290 3 4
134 7 290 7 l283 0 0 -290z m710 0 l0 -290 -290 0 -290 0 0 290 0 290 290 0
290 0 0 -290z m708 -2 l2 -288 -290 0 -290 0 0 290 0 290 288 -2 287 -3 3
-287z m702 2 l0 -290 -290 0 -290 0 0 283 c0 156 3 287 7 290 3 4 134 7 290 7
l283 0 0 -290z m708 -2 l2 -288 -290 0 -290 0 0 290 0 290 288 -2 287 -3 3
-287z m702 2 l0 -290 -290 0 -290 0 0 283 c0 156 3 287 7 290 3 4 134 7 290 7
l283 0 0 -290z m708 -2 l2 -288 -290 0 -290 0 0 290 0 290 288 -2 287 -3 3
-287z m702 2 l0 -290 -290 0 -290 0 0 283 c0 156 3 287 7 290 3 4 134 7 290 7
l283 0 0 -290z m708 -2 l2 -288 -290 0 -290 0 0 290 0 290 288 -2 287 -3 3
-287z m632 2 l0 -290 -255 0 -255 0 0 283 c0 156 3 287 7 290 3 4 118 7 255 7
l248 0 0 -290z m708 -2 l2 -288 -290 0 -290 0 0 290 0 290 288 -2 287 -3 3
-287z m-11218 -708 l0 -290 -290 0 -290 0 0 290 0 290 290 0 290 0 0 -290z
m710 0 l0 -290 -290 0 -290 0 0 290 0 290 290 0 290 0 0 -290z m700 0 l0 -290
-290 0 -290 0 0 290 0 290 290 0 290 0 0 -290z m710 0 l0 -290 -290 0 -290 0
0 290 0 290 290 0 290 0 0 -290z m700 0 l0 -290 -290 0 -290 0 0 290 0 290
290 0 290 0 0 -290z m710 0 l0 -290 -290 0 -290 0 0 290 0 290 290 0 290 0 0
-290z m700 0 l0 -290 -290 0 -290 0 0 290 0 290 290 0 290 0 0 -290z m710 0
l0 -290 -290 0 -290 0 0 290 0 290 290 0 290 0 0 -290z m710 0 l0 -290 -290 0
-290 0 0 290 0 290 290 0 290 0 0 -290z m700 0 l0 -290 -290 0 -290 0 0 290 0
290 290 0 290 0 0 -290z m710 0 l0 -290 -290 0 -290 0 0 290 0 290 290 0 290
0 0 -290z m700 0 l0 -290 -290 0 -290 0 0 290 0 290 290 0 290 0 0 -290z m710
0 l0 -290 -290 0 -290 0 0 290 0 290 290 0 290 0 0 -290z m700 0 l0 -290 -290
0 -290 0 0 290 0 290 290 0 290 0 0 -290z m710 0 l0 -290 -290 0 -290 0 0 290
0 290 290 0 290 0 0 -290z m630 0 l0 -290 -255 0 -255 0 0 290 0 290 255 0
255 0 0 -290z m710 0 l0 -290 -290 0 -290 0 0 290 0 290 290 0 290 0 0 -290z
m-11220 -710 l0 -290 -287 2 -288 3 -3 288 -2 287 290 0 290 0 0 -290z m708 3
l-3 -288 -287 -3 -288 -2 0 290 0 290 290 0 290 0 -2 -287z m702 -3 l0 -290
-287 2 -288 3 -3 288 -2 287 290 0 290 0 0 -290z m708 3 l-3 -288 -287 -3
-288 -2 0 290 0 290 290 0 290 0 -2 -287z m702 -3 l0 -290 -287 2 -288 3 -3
288 -2 287 290 0 290 0 0 -290z m708 3 l-3 -288 -287 -3 -288 -2 0 290 0 290
290 0 290 0 -2 -287z m702 -3 l0 -290 -287 2 -288 3 -3 288 -2 287 290 0 290
0 0 -290z m710 0 l0 -290 -290 0 -290 0 0 290 0 290 290 0 290 0 0 -290z m708
3 l-3 -288 -287 -3 -288 -2 0 290 0 290 290 0 290 0 -2 -287z m702 -3 l0 -290
-287 2 -288 3 -3 288 -2 287 290 0 290 0 0 -290z m710 0 l0 -290 -290 0 -290
0 0 290 0 290 290 0 290 0 0 -290z m700 0 l0 -290 -287 2 -288 3 -3 288 -2
287 290 0 290 0 0 -290z m708 3 l-3 -288 -287 -3 -288 -2 0 290 0 290 290 0
290 0 -2 -287z m702 -3 l0 -290 -287 2 -288 3 -3 288 -2 287 290 0 290 0 0
-290z m710 0 l0 -290 -290 0 -290 0 0 290 0 290 290 0 290 0 0 -290z m630 0
l0 -290 -252 2 -253 3 -3 288 -2 287 255 0 255 0 0 -290z m710 0 l0 -290 -290
0 -290 0 0 290 0 290 290 0 290 0 0 -290z m-11220 -700 l0 -290 -290 0 -290 0
0 283 c0 156 3 287 7 290 3 4 134 7 290 7 l283 0 0 -290z m708 -2 l2 -288
-290 0 -290 0 0 290 0 290 288 -2 287 -3 3 -287z m702 2 l0 -290 -290 0 -290
0 0 283 c0 156 3 287 7 290 3 4 134 7 290 7 l283 0 0 -290z m708 -2 l2 -288
-290 0 -290 0 0 290 0 290 288 -2 287 -3 3 -287z m702 2 l0 -290 -290 0 -290
0 0 283 c0 156 3 287 7 290 3 4 134 7 290 7 l283 0 0 -290z m708 -2 l2 -288
-290 0 -290 0 0 290 0 290 288 -2 287 -3 3 -287z m702 2 l0 -290 -290 0 -290
0 0 283 c0 156 3 287 7 290 3 4 134 7 290 7 l283 0 0 -290z m710 0 l0 -290
-290 0 -290 0 0 290 0 290 290 0 290 0 0 -290z m708 -2 l2 -288 -290 0 -290 0
0 290 0 290 288 -2 287 -3 3 -287z m702 2 l0 -290 -290 0 -290 0 0 283 c0 156
3 287 7 290 3 4 134 7 290 7 l283 0 0 -290z m710 0 l0 -290 -290 0 -290 0 0
290 0 290 290 0 290 0 0 -290z m700 0 l0 -290 -290 0 -290 0 0 283 c0 156 3
287 7 290 3 4 134 7 290 7 l283 0 0 -290z m708 -2 l2 -288 -290 0 -290 0 0
290 0 290 288 -2 287 -3 3 -287z m702 2 l0 -290 -290 0 -290 0 0 283 c0 156 3
287 7 290 3 4 134 7 290 7 l283 0 0 -290z m710 0 l0 -290 -290 0 -290 0 0 290
0 290 290 0 290 0 0 -290z m630 0 l0 -290 -255 0 -255 0 0 283 c0 156 3 287 7
290 3 4 118 7 255 7 l248 0 0 -290z m710 0 l0 -290 -290 0 -290 0 0 290 0 290
290 0 290 0 0 -290z m-11220 -710 l0 -290 -290 0 -290 0 0 290 0 290 290 0
290 0 0 -290z m710 0 l0 -290 -290 0 -290 0 0 290 0 290 290 0 290 0 0 -290z
m700 0 l0 -290 -287 2 -288 3 -3 288 -2 287 290 0 290 0 0 -290z m708 3 l-3
-288 -287 -3 -288 -2 0 290 0 290 290 0 290 0 -2 -287z m702 -3 l0 -290 -287
2 -288 3 -3 288 -2 287 290 0 290 0 0 -290z m710 0 l0 -290 -290 0 -290 0 0
290 0 290 290 0 290 0 0 -290z m700 0 l0 -290 -287 2 -288 3 -3 288 -2 287
290 0 290 0 0 -290z m710 0 l0 -290 -290 0 -290 0 0 290 0 290 290 0 290 0 0
-290z m708 3 l-3 -288 -287 -3 -288 -2 0 290 0 290 290 0 290 0 -2 -287z m702
-3 l0 -290 -287 2 -288 3 -3 288 -2 287 290 0 290 0 0 -290z m710 0 l0 -290
-290 0 -290 0 0 290 0 290 290 0 290 0 0 -290z m700 0 l0 -290 -287 2 -288 3
-3 288 -2 287 290 0 290 0 0 -290z m708 3 l-3 -288 -287 -3 -288 -2 0 290 0
290 290 0 290 0 -2 -287z m702 -3 l0 -290 -287 2 -288 3 -3 288 -2 287 290 0
290 0 0 -290z m710 0 l0 -290 -290 0 -290 0 0 290 0 290 290 0 290 0 0 -290z
m630 0 l0 -290 -252 2 -253 3 -3 288 -2 287 255 0 255 0 0 -290z m710 0 l0
-290 -290 0 -290 0 0 290 0 290 290 0 290 0 0 -290z m-11220 -700 l0 -290
-290 0 -290 0 0 283 c0 156 3 287 7 290 3 4 134 7 290 7 l283 0 0 -290z m708
-2 l2 -288 -290 0 -290 0 0 290 0 290 288 -2 287 -3 3 -287z m702 2 l0 -290
-290 0 -290 0 0 283 c0 156 3 287 7 290 3 4 134 7 290 7 l283 0 0 -290z m708
-2 l2 -288 -290 0 -290 0 0 290 0 290 288 -2 287 -3 3 -287z m702 2 l0 -290
-290 0 -290 0 0 283 c0 156 3 287 7 290 3 4 134 7 290 7 l283 0 0 -290z m708
-2 l2 -288 -290 0 -290 0 0 290 0 290 288 -2 287 -3 3 -287z m702 2 l0 -290
-290 0 -290 0 0 283 c0 156 3 287 7 290 3 4 134 7 290 7 l283 0 0 -290z m710
0 l0 -290 -290 0 -290 0 0 290 0 290 290 0 290 0 0 -290z m708 -2 l2 -288
-290 0 -290 0 0 290 0 290 288 -2 287 -3 3 -287z m702 2 l0 -290 -290 0 -290
0 0 283 c0 156 3 287 7 290 3 4 134 7 290 7 l283 0 0 -290z m708 -2 l2 -288
-290 0 -290 0 0 290 0 290 288 -2 287 -3 3 -287z m702 2 l0 -290 -290 0 -290
0 0 283 c0 156 3 287 7 290 3 4 134 7 290 7 l283 0 0 -290z m708 -2 l2 -288
-290 0 -290 0 0 290 0 290 288 -2 287 -3 3 -287z m702 2 l0 -290 -290 0 -290
0 0 283 c0 156 3 287 7 290 3 4 134 7 290 7 l283 0 0 -290z m708 -2 l2 -288
-290 0 -290 0 0 290 0 290 288 -2 287 -3 3 -287z m632 2 l0 -290 -255 0 -255
0 0 283 c0 156 3 287 7 290 3 4 118 7 255 7 l248 0 0 -290z m708 -2 l2 -288
-290 0 -290 0 0 290 0 290 288 -2 287 -3 3 -287z m-11218 -708 l0 -290 -287 2
-288 3 -3 288 -2 287 290 0 290 0 0 -290z m708 3 l-3 -288 -287 -3 -288 -2 0
290 0 290 290 0 290 0 -2 -287z m702 -3 l0 -290 -287 2 -288 3 -3 288 -2 287
290 0 290 0 0 -290z m708 3 l-3 -288 -287 -3 -288 -2 0 290 0 290 290 0 290 0
-2 -287z m702 -3 l0 -290 -287 2 -288 3 -3 288 -2 287 290 0 290 0 0 -290z
m708 3 l-3 -288 -287 -3 -288 -2 0 290 0 290 290 0 290 0 -2 -287z m702 -3 l0
-290 -287 2 -288 3 -3 288 -2 287 290 0 290 0 0 -290z m710 0 l0 -290 -290 0
-290 0 0 290 0 290 290 0 290 0 0 -290z m708 3 l-3 -288 -287 -3 -288 -2 0
290 0 290 290 0 290 0 -2 -287z m702 -3 l0 -290 -287 2 -288 3 -3 288 -2 287
290 0 290 0 0 -290z m710 0 l0 -290 -290 0 -290 0 0 290 0 290 290 0 290 0 0
-290z m700 0 l0 -290 -287 2 -288 3 -3 288 -2 287 290 0 290 0 0 -290z m708 3
l-3 -288 -287 -3 -288 -2 0 290 0 290 290 0 290 0 -2 -287z m702 -3 l0 -290
-287 2 -288 3 -3 288 -2 287 290 0 290 0 0 -290z m710 0 l0 -290 -290 0 -290
0 0 290 0 290 290 0 290 0 0 -290z m630 0 l0 -290 -252 2 -253 3 -3 288 -2
287 255 0 255 0 0 -290z m710 0 l0 -290 -290 0 -290 0 0 290 0 290 290 0 290
0 0 -290z m-11220 -700 l0 -290 -290 0 -290 0 0 283 c0 156 3 287 7 290 3 4
134 7 290 7 l283 0 0 -290z m708 -2 l2 -288 -290 0 -290 0 0 290 0 290 288 -2
287 -3 3 -287z m702 2 l0 -290 -290 0 -290 0 0 283 c0 156 3 287 7 290 3 4
134 7 290 7 l283 0 0 -290z m708 -2 l2 -288 -290 0 -290 0 0 290 0 290 288 -2
287 -3 3 -287z m702 2 l0 -290 -290 0 -290 0 0 283 c0 156 3 287 7 290 3 4
134 7 290 7 l283 0 0 -290z m708 -2 l2 -288 -290 0 -290 0 0 290 0 290 288 -2
287 -3 3 -287z m702 2 l0 -290 -290 0 -290 0 0 283 c0 156 3 287 7 290 3 4
134 7 290 7 l283 0 0 -290z m710 0 l0 -290 -290 0 -290 0 0 290 0 290 290 0
290 0 0 -290z m708 -2 l2 -288 -290 0 -290 0 0 290 0 290 288 -2 287 -3 3
-287z m702 2 l0 -290 -290 0 -290 0 0 283 c0 156 3 287 7 290 3 4 134 7 290 7
l283 0 0 -290z m710 0 l0 -290 -290 0 -290 0 0 290 0 290 290 0 290 0 0 -290z
m700 0 l0 -290 -290 0 -290 0 0 283 c0 156 3 287 7 290 3 4 134 7 290 7 l283
0 0 -290z m708 -2 l2 -288 -290 0 -290 0 0 290 0 290 288 -2 287 -3 3 -287z
m702 2 l0 -290 -290 0 -290 0 0 283 c0 156 3 287 7 290 3 4 134 7 290 7 l283
0 0 -290z m710 0 l0 -290 -290 0 -290 0 0 290 0 290 290 0 290 0 0 -290z m630
0 l0 -290 -255 0 -255 0 0 283 c0 156 3 287 7 290 3 4 118 7 255 7 l248 0 0
-290z m710 0 l0 -290 -290 0 -290 0 0 290 0 290 290 0 290 0 0 -290z m-11220
-710 l0 -290 -290 0 -290 0 0 290 0 290 290 0 290 0 0 -290z m710 0 l0 -290
-290 0 -290 0 0 290 0 290 290 0 290 0 0 -290z m700 0 l0 -290 -287 2 -288 3
-3 288 -2 287 290 0 290 0 0 -290z m708 3 l-3 -288 -287 -3 -288 -2 0 290 0
290 290 0 290 0 -2 -287z m702 -3 l0 -290 -287 2 -288 3 -3 288 -2 287 290 0
290 0 0 -290z m710 0 l0 -290 -290 0 -290 0 0 290 0 290 290 0 290 0 0 -290z
m700 0 l0 -290 -287 2 -288 3 -3 288 -2 287 290 0 290 0 0 -290z m710 0 l0
-290 -290 0 -290 0 0 290 0 290 290 0 290 0 0 -290z m708 3 l-3 -288 -287 -3
-288 -2 0 290 0 290 290 0 290 0 -2 -287z m702 -3 l0 -290 -287 2 -288 3 -3
288 -2 287 290 0 290 0 0 -290z m710 0 l0 -290 -290 0 -290 0 0 290 0 290 290
0 290 0 0 -290z m700 0 l0 -290 -287 2 -288 3 -3 288 -2 287 290 0 290 0 0
-290z m708 3 l-3 -288 -287 -3 -288 -2 0 290 0 290 290 0 290 0 -2 -287z m702
-3 l0 -290 -287 2 -288 3 -3 288 -2 287 290 0 290 0 0 -290z m710 0 l0 -290
-290 0 -290 0 0 290 0 290 290 0 290 0 0 -290z m630 0 l0 -290 -252 2 -253 3
-3 288 -2 287 255 0 255 0 0 -290z m710 0 l0 -290 -290 0 -290 0 0 290 0 290
290 0 290 0 0 -290z m-11220 -665 l0 -255 -290 0 -290 0 0 248 c0 137 3 252 7
255 3 4 134 7 290 7 l283 0 0 -255z m708 -2 l2 -253 -290 0 -290 0 0 255 0
255 288 -2 287 -3 3 -252z m702 2 l0 -255 -290 0 -290 0 0 248 c0 137 3 252 7
255 3 4 134 7 290 7 l283 0 0 -255z m708 -2 l2 -253 -290 0 -290 0 0 255 0
255 288 -2 287 -3 3 -252z m702 2 l0 -255 -290 0 -290 0 0 248 c0 137 3 252 7
255 3 4 134 7 290 7 l283 0 0 -255z m708 -2 l2 -253 -290 0 -290 0 0 255 0
255 288 -2 287 -3 3 -252z m702 2 l0 -255 -290 0 -290 0 0 248 c0 137 3 252 7
255 3 4 134 7 290 7 l283 0 0 -255z m710 0 l0 -255 -290 0 -290 0 0 255 0 255
290 0 290 0 0 -255z m708 -2 l2 -253 -290 0 -290 0 0 255 0 255 288 -2 287 -3
3 -252z m702 2 l0 -255 -290 0 -290 0 0 248 c0 137 3 252 7 255 3 4 134 7 290
7 l283 0 0 -255z m708 -2 l2 -253 -290 0 -290 0 0 255 0 255 288 -2 287 -3 3
-252z m702 2 l0 -255 -290 0 -290 0 0 248 c0 137 3 252 7 255 3 4 134 7 290 7
l283 0 0 -255z m708 -2 l2 -253 -290 0 -290 0 0 255 0 255 288 -2 287 -3 3
-252z m702 2 l0 -255 -290 0 -290 0 0 248 c0 137 3 252 7 255 3 4 134 7 290 7
l283 0 0 -255z m708 -2 l2 -253 -290 0 -290 0 0 255 0 255 288 -2 287 -3 3
-252z m632 2 l0 -255 -255 0 -255 0 0 248 c0 137 3 252 7 255 3 4 118 7 255 7
l248 0 0 -255z m708 -2 l2 -253 -290 0 -290 0 0 255 0 255 288 -2 287 -3 3
-252z m-11218 -673 l0 -290 -290 0 -290 0 0 290 0 290 290 0 290 0 0 -290z
m710 0 l0 -290 -290 0 -290 0 0 290 0 290 290 0 290 0 0 -290z m700 0 l0 -290
-290 0 -290 0 0 290 0 290 290 0 290 0 0 -290z m710 0 l0 -290 -290 0 -290 0
0 290 0 290 290 0 290 0 0 -290z m700 0 l0 -290 -290 0 -290 0 0 290 0 290
290 0 290 0 0 -290z m710 0 l0 -290 -290 0 -290 0 0 290 0 290 290 0 290 0 0
-290z m700 0 l0 -290 -290 0 -290 0 0 290 0 290 290 0 290 0 0 -290z m710 0
l0 -290 -290 0 -290 0 0 290 0 290 290 0 290 0 0 -290z m710 0 l0 -290 -290 0
-290 0 0 290 0 290 290 0 290 0 0 -290z m700 0 l0 -290 -290 0 -290 0 0 290 0
290 290 0 290 0 0 -290z m710 0 l0 -290 -290 0 -290 0 0 290 0 290 290 0 290
0 0 -290z m700 0 l0 -290 -290 0 -290 0 0 290 0 290 290 0 290 0 0 -290z m710
0 l0 -290 -290 0 -290 0 0 290 0 290 290 0 290 0 0 -290z m700 0 l0 -290 -290
0 -290 0 0 290 0 290 290 0 290 0 0 -290z m710 0 l0 -290 -290 0 -290 0 0 290
0 290 290 0 290 0 0 -290z m630 0 l0 -290 -252 2 -253 3 -3 288 -2 287 255 0
255 0 0 -290z m710 0 l0 -290 -290 0 -290 0 0 290 0 290 290 0 290 0 0 -290z"/>
</g>
</svg>
